<svg width="397" height="159" viewBox="0 0 397 159" fill="none" xmlns="http://www.w3.org/2000/svg">
<path d="M242.377 152.24C191.95 152.462 141.521 152.793 91.0939 152.866C63.7023 152.905 36.1571 152.42 9.11644 147.636C6.33077 111.621 5.21648 75.4908 5.9118 39.3734C6.10044 29.5811 6.43607 19.7931 6.88134 10.0118C56.3455 5.49765 106.073 5.56351 155.702 5.6667C206.442 5.77209 257.187 5.88847 307.928 6.01362C322.065 6.04875 336.199 6.08607 350.336 6.119C364.113 6.15413 377.976 6.09485 391.61 8.31239C391.038 11.1535 391.38 14.4205 391.314 17.0487C391.189 22.1292 391.18 27.2076 391.178 32.2904C391.169 42.4538 391.191 52.615 391.176 62.7784C391.138 82.9229 390.963 103.063 390.645 123.205C390.566 128.286 390.478 133.367 390.379 138.447C390.333 140.805 390.287 143.163 390.237 145.521C390.215 146.566 390.165 147.792 390.364 148.929C341.148 152.738 291.703 152.02 242.377 152.24ZM396.865 36.0998C396.793 30.4769 396.773 24.8452 396.523 19.2267C396.403 16.5041 396.28 13.7816 396.164 11.0591C396.107 9.72196 396.001 8.4112 395.633 7.19045C396.712 5.64915 396.49 3.25596 394.159 2.85856C381.955 0.770554 369.603 0.412653 357.245 0.368741C344.611 0.32483 331.977 0.340214 319.347 0.329236C293.792 0.30728 268.24 0.280936 242.684 0.250198C191.676 0.193113 140.633 -0.399697 89.6265 0.469757C61.125 0.954982 32.6257 2.134 4.22945 4.71382C2.68308 4.85214 1.55564 5.86652 1.47448 7.4693C-0.422837 44.3991 -0.497425 81.4101 1.299 118.342C1.81446 128.969 2.48788 139.589 3.31481 150.196C3.40913 151.427 4.168 152.837 5.51258 153.09C30.044 157.67 55.0031 158.774 79.9074 158.943C105.171 159.114 130.442 158.853 155.706 158.77C206.703 158.603 257.703 158.576 308.7 158.337C336.901 158.207 365.05 157.511 393.154 155.061C396.071 154.806 396.885 151.417 395.56 149.704C396.014 148.38 396.218 146.876 396.234 146.066C396.328 140.987 396.416 135.905 396.493 130.826C396.8 110.684 396.966 90.5416 396.993 70.3993C397.008 58.9668 397.012 47.5322 396.865 36.0998Z" fill="#5F8D4E"/>
<path d="M233.216 132.65C190.151 133.235 147.084 133.64 104.017 133.817C80.7473 133.91 57.5088 133.59 34.3429 131.26C33.7207 96.1988 33.5756 61.1286 32.538 26.0759C39.2759 25.9203 46.0467 26.146 52.7846 26.1767C67.111 26.2469 81.4397 26.3148 95.7662 26.3827C152.69 26.6566 209.644 26.4682 266.554 27.9013C282.674 28.3045 298.792 28.8611 314.902 29.639C329.613 30.3512 344.522 31.9597 359.18 29.9042C362.372 63.3024 362.634 96.9285 359.963 130.373C317.713 131.238 275.468 132.078 233.216 132.65ZM363.913 27.0993C363.737 25.3966 362.471 24.3973 360.759 24.7063C346.371 27.2811 331.558 25.653 317.071 24.9298C302.413 24.1957 287.746 23.6501 273.076 23.2381C244.089 22.4208 215.093 22.1118 186.095 21.9102C156.712 21.7086 127.328 21.5552 97.9447 21.3821C83.427 21.2966 68.9137 21.2111 54.3982 21.1257C47.3921 21.084 40.386 21.0205 33.38 21.0008C31.0563 20.9942 28.403 20.9898 26.6113 22.7298C24.4328 24.8466 25.055 28.2453 25.1693 30.9538C26.4685 61.924 27.4775 92.9118 29.4296 123.851C29.4384 127.059 29.4581 130.27 29.4603 133.48C29.4625 134.931 30.5969 135.755 31.9181 135.928C53.1209 138.709 74.5766 139 95.9311 139C117.334 139 138.737 138.829 160.14 138.663C203.22 138.334 246.303 137.808 289.384 137.085C313.739 136.677 338.096 136.243 362.449 135.658C363.981 135.623 365.006 134.462 365.125 132.991C367.98 97.7393 367.573 62.279 363.913 27.0993Z" fill="#5F8D4E"/>
<path d="M19.9737 19.872C19.9359 19.5596 19.907 19.2427 19.816 18.9394C19.7293 18.6475 19.6049 18.3648 19.4628 18.0935C19.4294 17.7834 19.3784 17.4755 19.3228 17.1746C19.1918 16.6934 18.9541 16.2739 18.612 15.9205C18.2677 15.5693 17.859 15.3254 17.3903 15.1908C16.9127 15.0426 16.3841 14.9651 15.8843 15.0152C15.5289 15.0472 15.1557 15.0836 14.8092 15.1817C14.4627 15.282 14.1184 15.4439 13.7963 15.6012C13.3587 15.8133 12.9589 16.1485 12.6035 16.4723C12.5013 16.5658 12.408 16.6684 12.3192 16.7755C12.0882 17.056 11.8527 17.3501 11.6705 17.6671C11.4218 18.0958 11.2041 18.5905 11.1152 19.0853C10.9642 19.9085 10.9575 20.499 11.1197 21.3245C11.173 21.6004 11.3174 21.8649 11.424 22.1202C11.4484 22.1772 11.4751 22.2365 11.5039 22.2935C11.655 22.5945 11.9016 22.8841 12.0971 23.1349C12.3725 23.4884 12.7412 23.7597 13.0966 24.0174C13.2055 24.0972 13.3209 24.1655 13.4409 24.2271C13.4498 24.2317 13.4587 24.234 13.4676 24.2385C13.6253 24.3662 13.7763 24.503 13.9451 24.6102C14.1672 24.706 14.3871 24.8017 14.6093 24.8975C14.978 25.0138 15.349 25.032 15.7177 24.9477C15.9687 24.9454 16.202 24.8815 16.4196 24.7516C16.6662 24.6695 16.8616 24.4962 17.0593 24.332C17.2526 24.2613 17.4414 24.2066 17.6502 24.0949C18.0589 23.8737 18.4432 23.616 18.7697 23.2786C19.545 22.4782 19.9514 21.4749 19.9981 20.3508C20.0047 20.1889 19.9936 20.0293 19.9737 19.872Z" fill="#5F8D4E"/>
<path d="M22.0883 135.633C22.04 135.55 21.9581 135.502 21.8636 135.479C21.8468 135.47 21.8363 135.457 21.8216 135.449C20.4351 134.759 18.889 134.849 17.6559 135.822C16.6265 136.636 16.0258 137.934 16.0006 139.261C15.9859 139.978 16.261 140.807 16.6665 141.387C16.866 141.679 17.0824 141.969 17.3471 142.203C17.616 142.446 17.9311 142.669 18.2882 142.753C18.4016 142.777 18.5424 142.794 18.6726 142.807C19.0024 142.938 19.347 143.036 19.6957 142.987C19.8217 142.97 19.9351 142.929 20.0444 142.88C20.5464 142.835 21.0464 142.678 21.4855 142.45C21.2964 142.532 21.1073 142.613 20.9183 142.695C21.5359 142.493 22.0883 142.22 22.5526 141.746C22.4055 141.862 22.2606 141.978 22.1115 142.094C22.6745 141.735 23.1303 141.344 23.4916 140.768C23.8382 140.214 24.0315 139.48 23.9958 138.823C23.9244 137.508 23.1912 136.31 22.0883 135.633Z" fill="#5F8D4E"/>
<path d="M380.979 20.6597C380.942 20.3166 380.904 19.9544 380.812 19.6177C380.718 19.2703 380.564 18.9356 380.414 18.6073C380.2 18.1498 379.87 17.7241 379.513 17.3725C378.98 16.8514 378.396 16.538 377.707 16.2753C377.166 16.0699 376.554 15.9852 375.974 16.0021C375.403 16.0191 374.799 16.1059 374.262 16.3135C373.915 16.449 373.526 16.5825 373.216 16.8027C372.929 17.0082 372.629 17.2242 372.377 17.4763C371.992 17.8639 371.705 18.3066 371.536 18.8255C371.491 18.9653 371.474 19.1072 371.45 19.247C371.324 19.5266 371.198 19.8104 371.136 20.1069C370.965 20.9033 370.935 21.6976 371.166 22.4876C371.384 23.2353 371.765 23.8474 372.291 24.4151C372.647 24.8027 373.098 25.1416 373.571 25.3767C374.236 25.705 374.99 25.9867 375.745 25.9994C376.278 26.0079 376.823 25.9232 377.341 25.8088C377.842 25.6965 378.351 25.4847 378.771 25.1924C379.776 24.4871 380.591 23.4641 380.855 22.2462C380.964 21.7336 381.039 21.1871 380.979 20.6597Z" fill="#5F8D4E"/>
<path d="M380.475 136.549C379.54 136.038 378.468 135.85 377.429 136.129C376.397 136.403 375.502 137.16 374.975 138.085C374.913 138.147 374.843 138.198 374.783 138.264C374.115 139.034 373.723 139.722 373.363 140.667C373.116 141.318 373.019 142.052 373.001 142.74C372.988 143.22 373.072 143.701 373.145 144.172C373.182 144.413 373.246 144.647 373.332 144.878C373.59 145.564 373.976 146.243 374.658 146.603C375.332 146.962 376.126 147.121 376.874 146.896C377.394 146.738 377.908 146.566 378.411 146.364C379.081 146.09 379.773 145.818 380.362 145.387C381.154 144.811 381.818 144.216 382.32 143.36C382.543 142.984 382.728 142.57 382.843 142.147C382.927 141.835 382.953 141.492 382.986 141.174C382.997 141.054 383.004 140.937 382.997 140.822C382.887 139.109 382.016 137.392 380.475 136.549Z" fill="#5F8D4E"/>
<path d="M378.804 42.6046C378.711 41.7221 378.653 40.8308 378.457 39.9615L378.214 38.8837C378.188 38.7673 378.167 38.64 378.135 38.5236C378.121 38.3809 378.107 38.2405 378.079 38.0978C378.191 38.7673 378.116 37.9968 378.123 37.7992C378.135 37.4567 378.034 37.1253 377.859 36.8311C377.857 36.4316 377.477 36.0803 377.024 36.0474C376.961 36.043 376.902 36.0606 376.842 36.065C376.823 36.0584 376.804 36.0606 376.783 36.0562C376.772 36.054 376.76 36.0518 376.751 36.0518C375.95 35.8476 375.096 36.2691 374.702 36.9277C374.518 37.235 374.375 37.5753 374.254 37.909C373.995 38.6224 374.041 39.4632 374.009 40.2096C373.976 41.0174 374.041 41.8011 374.102 42.6046C374.17 43.5222 374.13 44.5364 374.417 45.4167C374.758 46.4616 375.808 47.1268 376.963 46.9797C377.449 46.9182 377.953 46.7316 378.293 46.3804C378.739 45.926 378.891 45.4452 378.972 44.8371C379.07 44.1171 378.881 43.3224 378.804 42.6046Z" fill="#5F8D4E"/>
<path d="M379.073 51.4715C378.465 51.1571 377.835 51.1074 377.173 51.0056C376.522 50.9061 375.865 50.7772 375.209 50.7365C374.707 50.7049 374.2 50.6777 373.695 50.6483C373.44 50.6325 373.202 50.6641 372.949 50.6913C373.006 50.5194 373.058 50.3453 373.163 50.187C373.232 50.0807 373.097 49.9563 372.994 50.0151C372.807 50.1237 372.638 50.2503 372.476 50.3905C372.266 50.5669 372.013 50.5805 371.791 50.7704C371.898 50.7094 372.006 50.6483 372.115 50.585C371.554 50.6777 371.28 51.0689 371.09 51.5687C370.837 52.229 371.138 52.9255 371.741 53.2874C372.376 53.6718 373.086 53.9093 373.794 54.1173C374.431 54.305 375.056 54.4769 375.707 54.6035C376.043 54.6691 376.376 54.7347 376.712 54.8003C377.161 54.8885 377.655 55.0445 378.109 54.988C378.545 54.9314 378.904 54.8568 379.264 54.5809C379.577 54.3412 379.856 53.9952 379.947 53.6017C380.13 52.8125 379.84 51.865 379.073 51.4715Z" fill="#5F8D4E"/>
<path d="M377.574 63.0915C377.395 62.4606 376.684 62 375.963 62C375.168 62 374.638 62.4759 374.354 63.0915C373.716 64.4603 373.463 65.9273 373.306 67.3965C373.24 68.0492 373.171 68.6997 373.1 69.3524C372.999 70.3042 372.818 71.2233 373.495 72.0682C374.268 73.0309 375.81 73.3911 376.836 72.4524C377.361 71.9677 377.64 71.4722 377.739 70.8107C377.802 70.3894 377.815 69.9681 377.842 69.5489C377.883 68.8635 377.923 68.1802 377.967 67.4947C378.055 66.0211 377.981 64.5258 377.574 63.0915Z" fill="#5F8D4E"/>
<path d="M379.462 77.5554C378.112 77.2513 376.719 77.1648 375.349 77.0314C374.753 76.9706 374.141 77.0127 373.545 77.0361C373.308 77.0455 373.08 77.0782 372.848 77.1273C373.153 77.0642 372.745 77.1484 372.679 77.1578C372.225 77.2116 371.876 77.2981 371.467 77.5297C370.868 77.8665 370.894 78.6689 371.269 79.1578C371.719 79.7426 372.464 80.1426 373.113 80.4187C373.251 80.4795 373.387 80.5356 373.525 80.5918C373.593 80.6222 373.661 80.6502 373.729 80.6783C373.854 80.7298 373.819 80.7181 373.633 80.6432C373.716 80.6854 373.797 80.7298 373.88 80.7719L374.336 80.9777C374.494 81.0386 374.663 81.076 374.827 81.1228C375.95 81.4409 377.075 81.7123 378.219 81.883C378.337 81.9205 378.458 81.9719 378.57 81.9883C378.653 82 378.715 81.979 378.787 81.979C378.824 81.9836 378.859 81.9953 378.897 82L378.877 81.9766C379.221 81.9673 379.534 81.8924 379.887 81.7286C379.916 81.7146 379.94 81.7029 379.966 81.6889C380.262 81.5532 380.569 81.1672 380.727 80.8772C380.968 80.4397 381.041 79.9344 380.979 79.4362C380.872 78.5987 380.278 77.7426 379.462 77.5554Z" fill="#5F8D4E"/>
<path d="M376.049 88.3158C375.87 88.1941 375.677 88.0968 375.433 88.0636C375.207 88.037 374.882 87.922 374.689 88.0879C374.441 88.3025 374.269 88.5149 374.126 88.7539C373.679 89.2783 373.622 90.0461 373.601 90.6966C373.584 91.2542 373.56 91.8162 373.527 92.3716C373.512 92.6415 373.484 92.9093 373.455 93.177C373.438 93.3208 373.427 93.469 373.41 93.6151C373.405 93.6792 373.376 93.8209 373.362 93.8828C373.372 93.8452 373.386 93.77 373.419 93.6306C373.286 94.2014 373.198 94.7811 373.059 95.3542C372.799 96.4251 373.41 97.6797 374.643 97.9386C375.896 98.2041 377.025 97.589 377.433 96.4716C377.9 95.175 378.087 93.7346 377.963 92.3716C377.85 91.1391 377.488 88.8845 376.049 88.3158Z" fill="#5F8D4E"/>
<path d="M379.75 101.997C379.453 101.534 379.126 101.167 378.665 100.932C378.31 100.752 377.949 100.576 377.581 100.425C376.962 100.174 376.227 100.121 375.579 100.036C375.036 99.9627 374.538 100.014 373.997 100.078C373.433 100.145 372.815 100.223 372.352 100.583C372.125 100.667 371.912 100.781 371.712 100.923C371.601 100.956 371.491 100.985 371.381 101.021C370.893 101.167 370.853 102.034 371.381 102.157C371.485 102.181 371.589 102.206 371.692 102.232C371.86 102.354 372.041 102.457 372.225 102.546C372.596 102.924 373.166 103.117 373.601 103.304C373.644 103.319 373.684 103.337 373.722 103.355C373.81 103.41 373.902 103.464 373.995 103.51C374.332 103.688 374.687 103.813 375.034 103.95C375.162 104.004 375.286 104.055 375.415 104.111C375.423 104.115 375.447 104.124 375.469 104.133C375.439 104.122 375.654 104.219 375.696 104.239C375.934 104.353 376.167 104.484 376.412 104.573C376.665 104.668 376.923 104.749 377.176 104.844C377.684 105.035 378.131 105.026 378.667 104.946C379.784 104.777 380.366 102.961 379.75 101.997Z" fill="#5F8D4E"/>
<path d="M378.861 114.639C378.76 113.807 378.638 113.024 378.374 112.236C378.186 111.676 377.873 110.972 377.481 110.549C376.802 109.815 375.905 109.843 375.182 110.479C374.751 110.855 374.61 111.497 374.493 112.069C374.429 112.39 374.387 112.716 374.342 113.046C374.383 112.718 374.386 112.687 374.352 112.958C374.317 113.242 374.282 113.528 374.249 113.814C374.194 114.647 374.146 115.49 374.121 116.324C374.095 117.188 373.977 118.059 374.004 118.924C374.023 119.502 374.084 120.059 374.348 120.569C374.497 120.884 374.701 121.134 374.959 121.324C375.023 121.381 375.064 121.416 375.105 121.449C375.408 121.7 375.639 121.92 376.064 121.984C376.497 122.05 376.782 121.907 377.143 121.748C377.236 121.702 377.372 121.64 377.594 121.535C377.755 121.394 377.914 121.253 378.075 121.115C378.463 120.71 378.655 120.125 378.778 119.559C378.898 119.007 378.956 118.435 378.98 117.868C379.026 116.77 378.995 115.725 378.861 114.639Z" fill="#5F8D4E"/>
<path d="M378.049 127.58C377.269 127.129 376.211 127.199 375.332 127.134C374.649 127.084 373.952 127.027 373.267 127.021C372.954 127.019 372.64 127.007 372.328 127.009C372.163 127.009 371.995 126.994 371.828 127.003C371.643 127.013 371.493 127.064 371.347 127.125C371.022 127.123 370.7 127.127 370.439 127.305C370.341 127.31 370.258 127.326 370.114 127.365C370.008 127.391 369.975 127.506 370.019 127.598C370.096 127.754 370.137 127.821 370.217 127.903C370.267 128.175 370.416 128.425 370.656 128.579C370.789 128.726 370.793 128.697 370.67 128.497C370.727 128.697 370.831 128.871 370.979 129.019C371.108 129.146 371.308 129.266 371.462 129.375C372.097 129.825 372.79 130.183 373.535 130.427C375.089 130.932 378.307 131.733 378.938 129.577C379.163 128.802 378.753 127.985 378.049 127.58Z" fill="#5F8D4E"/>
<path d="M20.8014 41.1448C20.5641 39.5163 20.3716 37.8722 20.0335 36.257C19.8656 35.4538 19.6888 34.655 19.4314 33.8717C19.2836 33.4292 19.0598 32.9202 18.7196 32.5839C18.5047 32.3737 17.6585 31.8449 17.3675 32.044C16.8571 32.387 16.4362 32.637 16.2236 33.2345C16.1251 33.5133 16.0692 33.7987 16.0423 34.0952C15.9931 34.6306 15.993 35.1949 16.0109 35.7326C16.0423 36.83 16.1676 37.9231 16.3019 39.0095C16.4385 40.1048 16.584 41.1957 16.7094 42.2887C16.7295 42.4547 16.7497 42.6206 16.7564 42.7866C16.7608 42.8684 16.7586 42.9503 16.7564 43.03C16.7541 43.0366 16.7564 43.0322 16.7541 43.041C16.6937 43.2291 16.6713 43.426 16.6467 43.623C16.6153 43.6982 16.6198 43.7712 16.6064 43.8509C16.6064 43.8642 16.5974 43.8774 16.5974 43.8885C16.5997 43.8973 16.5997 43.9018 16.6019 43.9106C16.584 44.0456 16.5459 44.1784 16.575 44.3133C16.5974 44.4173 16.6511 44.5169 16.687 44.6187C16.6914 44.6364 16.6892 44.6585 16.6959 44.6762V44.6408C16.969 45.3621 17.5779 45.9773 18.5002 45.9994C19.7672 46.0282 20.7588 45.0413 20.9424 43.8487C21.0834 42.9216 20.9379 42.0675 20.8014 41.1448Z" fill="#5F8D4E"/>
<path d="M20.1076 50.6236C19.8069 50.3544 19.477 50.1193 19.1326 49.9048C18.6257 49.583 18.1018 49.2932 17.5585 49.0307C16.9134 48.7204 16.2318 48.4054 15.543 48.1977C14.8809 47.9946 14.1217 47.9695 13.4305 48.0266C12.8169 48.0768 12.1887 48.41 12.0432 49.0216C11.8855 49.6606 12.1717 50.1672 12.7029 50.5506C12.3997 50.3315 12.7805 50.6168 12.8363 50.6579C13.0206 50.7948 13.1807 50.9112 13.3723 51.0276C13.6076 51.1691 13.838 51.3311 14.0853 51.4498C14.5923 51.694 15.1064 51.913 15.5988 52.1846C16.0936 52.4562 16.5617 52.7574 17.025 53.0701C17.1195 53.134 17.1365 53.1431 17.1195 53.1317C17.3184 53.2732 17.5076 53.4056 17.721 53.5311C18.1697 53.8004 18.6354 54.0308 19.1884 53.9966C20.0858 53.935 21.0947 53.2641 20.9929 52.2964C20.9177 51.5776 20.6461 51.1143 20.1076 50.6236Z" fill="#5F8D4E"/>
<path d="M18.9017 68.8138C18.8379 67.8173 18.739 66.8273 18.6423 65.8352C18.5412 64.8142 18.3763 63.811 18.1807 62.8034C18.084 62.3106 17.9433 61.8268 17.7169 61.3829C17.6202 61.1898 17.5147 60.9967 17.3718 60.8302C17.1542 60.5727 16.8904 60.4329 16.7453 60.1199C16.6508 59.9157 16.3695 59.9979 16.3079 60.1754C16.1958 60.5039 15.9276 60.6571 15.7496 60.9301C15.6397 61.0965 15.5716 61.2874 15.4946 61.4716C15.277 61.9866 15.2067 62.5437 15.1517 63.0985C15.0572 64.0507 14.9979 64.9985 15.0001 65.9551C15.0045 66.9073 15.0066 67.8594 15.0418 68.8138C15.0792 69.8637 14.9583 71.2042 15.5342 72.112C16.22 73.1952 18.0136 73.3927 18.6489 72.112C19.172 71.0666 18.9764 69.9413 18.9017 68.8138Z" fill="#5F8D4E"/>
<path d="M20.9999 80.8664C20.9978 80.6182 20.9389 80.2532 20.8648 79.9979C20.6949 79.4158 20.3355 78.8934 19.9499 78.4615C19.2222 77.648 18.3029 77.1136 17.2637 77.0182C16.3662 76.937 15.4512 77.1422 14.582 77.3474C14.1964 77.4404 13.8064 77.5239 13.4187 77.6074C13.2705 77.6384 13.1747 77.6766 13.0265 77.7387C12.9067 77.7864 13.0374 77.7363 12.9546 77.7649C12.837 77.8102 12.7324 77.8317 12.6278 77.9152C12.5167 77.877 12.4035 77.8245 12.3054 77.7697C12.1006 77.6528 11.8981 77.9319 12.0571 78.1204C12.1791 78.2611 12.3142 78.3804 12.4405 78.5164C12.4579 78.6261 12.4536 78.7383 12.5167 78.8409C12.6605 79.0651 12.6474 79.0627 12.8435 79.2774C13.1507 79.6138 13.6757 79.8262 14.0831 79.9478C14.4317 80.0504 14.7846 80.1292 15.1375 80.2151C15.4229 80.2819 15.7126 80.3128 16.0024 80.3462C16.0045 80.3462 16.0024 80.3462 16.0045 80.3462C16.096 80.3629 16.1854 80.3773 16.2769 80.3964C16.4446 80.4274 16.6145 80.4655 16.7779 80.5228C16.8781 80.5705 17.1374 80.6874 17.1766 80.7041C16.6429 80.4632 17.1461 80.7065 17.2746 80.79C17.316 80.8187 17.3574 80.8473 17.3966 80.8783C17.4903 80.9809 17.584 81.0834 17.6777 81.186C17.7082 81.2337 17.7365 81.2862 17.767 81.3339C17.7975 81.3864 17.8563 81.4699 17.9173 81.5511C17.8759 81.501 17.9674 81.6274 17.9979 81.6775C18.1548 81.9232 18.3203 82.1308 18.5164 82.2978C18.4184 82.732 18.8476 83.0708 19.207 82.9873C19.3748 82.9491 19.525 82.8513 19.6667 82.7392C20.0043 82.6819 20.2701 82.4839 20.464 82.1928C20.7952 81.8493 21.0043 81.4294 20.9999 80.8664Z" fill="#5F8D4E"/>
<path d="M19.6276 93.5235C19.4361 92.5895 19.1808 91.6926 18.8351 90.787C18.6489 90.2938 18.4362 89.7265 18.1276 89.2704C17.9973 89.074 17.8138 88.906 17.6196 88.7532C17.3377 88.5372 16.8164 88.4237 16.6834 88.1073C16.6196 87.9502 16.3138 87.9676 16.3191 88.1466C16.3297 88.4259 15.8004 88.834 15.6409 89.1002C15.4839 89.3511 15.4201 89.5999 15.3802 89.8814C15.3084 90.3877 15.2578 90.8961 15.2233 91.4046C15.1488 92.356 15.1063 93.2987 15.0557 94.2502C15.0026 95.2409 14.9786 96.2207 15.0238 97.2136C15.0398 97.554 15.0584 97.9708 15.1648 98.2938C15.3111 98.7215 15.5957 98.9594 15.9255 99.2758C15.7818 99.0903 15.8643 99.1688 16.1648 99.5115C16.3324 99.662 16.5372 99.7689 16.7712 99.8322C17.0451 99.9392 17.3031 100.024 17.6063 99.9937C18.3696 99.9239 19.2473 99.3238 19.6063 98.7673C19.9734 98.1978 19.9973 97.5191 20 96.8841C20.0026 95.7472 19.8537 94.6473 19.6276 93.5235Z" fill="#5F8D4E"/>
<path d="M20.9944 108.471C21.0319 107.88 20.8797 107.531 20.5511 107.064C20.732 107.263 20.6658 107.162 20.3526 106.763C20.2092 106.59 20.0438 106.442 19.8585 106.322C19.3711 106.02 18.7469 105.83 18.2154 105.633C17.289 105.292 16.2237 105.098 15.2466 105.027C14.3159 104.962 13.3035 105.009 12.4014 105.234C11.9228 105.356 11.5037 105.443 11.0869 105.724C10.7693 105.938 10.4098 106.048 10.0657 106.224C9.95103 106.285 10.0017 106.451 10.101 106.491C10.4804 106.651 10.8311 106.761 11.1685 107.003C11.5743 107.294 12.1059 107.5 12.5625 107.681C13.4138 108.016 14.2916 108.333 15.154 108.631C16.0274 108.934 16.8876 109.295 17.7478 109.637C17.9706 109.729 18.1977 109.858 18.4271 109.928C18.6477 109.985 18.8682 110.006 19.091 109.999C19.2807 109.968 19.3998 109.952 19.4792 109.94C20.2599 109.816 20.9349 109.358 20.9944 108.471Z" fill="#5F8D4E"/>
<path d="M18.6413 114.623C18.631 114.58 18.6413 114.537 18.631 114.496C18.6207 114.466 18.6103 114.439 18.6 114.41C18.294 113.494 17.5785 112.883 16.6604 113.019C15.8478 113.139 15.0641 113.96 15.1282 114.928C15.1385 115.087 15.1468 115.25 15.1571 115.409C15.1571 115.412 15.155 115.407 15.153 115.409C14.9317 115.975 14.9772 116.579 15.2233 117.107C15.2274 117.377 15.2398 117.645 15.2316 117.913C15.2233 118.14 15.2088 118.368 15.1923 118.595C15.182 118.72 15.1695 118.847 15.1571 118.974C15.155 118.986 15.155 118.977 15.153 118.99C15.1158 119.211 15.0765 119.436 15.0414 119.66C14.9607 120.156 15.0021 120.565 15.1303 120.951C15.153 121.119 15.1881 121.285 15.2502 121.451C15.3018 121.587 15.399 121.683 15.4735 121.796C15.4983 121.855 15.5128 121.921 15.5397 121.98C15.5872 122.094 15.6699 122.164 15.7527 122.235C15.7568 122.305 15.763 122.371 15.7671 122.437C15.7981 122.919 16.313 123.194 16.648 122.839C16.71 122.773 16.7865 122.664 16.8651 122.603C16.9582 122.578 17.0657 122.553 17.1505 122.512C17.3697 122.428 17.5806 122.339 17.7708 122.178C17.899 122.069 17.9755 121.917 18.0706 121.78C18.3829 121.467 18.6331 121.081 18.7282 120.635C18.7943 120.326 18.8192 119.999 18.8585 119.683C18.9308 119.097 18.9867 118.508 18.997 117.913C19.0197 116.8 18.9143 115.691 18.6413 114.623Z" fill="#5F8D4E"/>
<path d="M20.9464 128.663C20.8285 128.174 20.4835 127.802 20.0688 127.727C19.4597 127.205 18.6323 127.167 17.8421 127.12C17.1173 127.08 16.3816 126.998 15.6568 127C14.9582 127.005 14.2487 127.03 13.5501 127.077C12.7926 127.13 11.95 127.42 11.4479 128.091C11.3867 128.111 11.3256 128.131 11.2667 128.149C10.8781 128.266 10.9458 128.823 11.2667 128.975L11.378 129.028C11.76 129.737 12.5525 130.162 13.2489 130.324C13.9235 130.479 14.6176 130.586 15.2988 130.703C16.0868 130.838 16.8902 130.871 17.6805 130.943C18.462 131.011 19.4029 131.126 20.0578 130.546C20.6866 130.187 21.1647 129.55 20.9464 128.663Z" fill="#5F8D4E"/>
</svg>
