<svg width="500" height="721" viewBox="0 0 500 721" fill="none" xmlns="http://www.w3.org/2000/svg">
<path d="M476.929 397.494C477.811 401.609 480.689 402.936 483.244 405.812C486.655 409.636 482.684 413.04 480.002 416.233C477.386 419.352 474.714 422.367 473.145 426.164C470.108 433.518 471.524 441.48 474.677 448.54C476.648 452.944 479.236 457.039 482.179 460.864C485.108 464.67 489.971 468.317 491.891 472.706C494.428 478.504 487.542 485.764 484.529 490.328C482.212 493.834 479.881 497.341 477.639 500.904C476.601 501.788 475.709 502.877 475.088 504.546C474.985 504.84 474.938 505.163 474.845 505.462C474.775 505.592 474.686 505.705 474.616 505.835C474.308 506.388 474.256 506.952 474.289 507.51C473.672 510.773 473.775 514.298 474.247 517.445C475.462 525.546 482.245 536.235 474.303 542.472C469.024 546.629 464.259 551.032 466.595 558.381C468.772 565.214 476.274 569.191 478.003 576.093C479.624 582.576 475.789 589.87 473.817 595.897C471.925 601.703 470.342 608.128 472.584 614.08C473.761 617.197 475.826 619.409 478.251 621.635C483.034 626.03 482.712 629.812 478.886 634.991C474.457 640.991 466.731 645.405 469.599 654.058C470.926 658.065 474.289 660.879 477.251 663.704C480.801 667.098 483.74 670.922 485.977 675.288C490.336 683.761 491.634 693.339 489.934 702.606C488.243 701.317 485.571 698.473 484.94 698.015C484.791 697.907 484.618 697.805 484.464 697.697C486.295 694.562 482.006 690.423 478.4 692.242C470.267 696.342 462.279 703.832 453.132 705.534C444.106 707.216 439.58 697.853 430.914 697.535C426.943 697.389 423.486 698.923 419.833 700.208C415.568 701.7 411.214 702.57 406.683 702.612C397.498 702.71 388.959 699.693 381.601 694.34C379.48 692.793 376.748 694.181 375.407 695.949C367.344 706.628 353.792 712.125 340.552 710.428C339.8 706.703 340.039 703.182 341.347 699.348C342.463 696.099 339.086 693.603 336.133 694.181C316.074 698.132 296.35 703.673 277.253 710.925C271.344 698.386 254.423 696.501 241.74 698.344C235.663 699.231 229.604 700.676 223.428 700.69C218.149 700.7 212.898 698.512 207.638 699.175C201.042 700.002 196.716 705.108 192.203 709.404C190.115 711.387 187.452 714.282 184.238 713.365C180.88 712.412 178.899 707.848 176.787 705.378C171.868 699.639 165.464 698.773 158.942 702.663C154.649 705.22 151.136 708.151 145.993 708.984C140.186 709.919 134.043 708.713 128.717 706.347C118.706 701.905 111.059 693.504 103.729 685.691C102.73 684.626 100.637 684.265 99.3894 685.136C91.3403 690.759 83.3194 696.417 75.2376 701.994C71.804 704.36 67.5483 707.8 63.1991 705.693C60.5223 704.389 58.7237 701.138 57.014 698.862C53.5243 694.2 49.6283 689.955 43.4385 689.291C35.1512 688.389 28.6297 693.789 20.8656 695.243C17.7824 695.823 12.9334 696.037 10.4528 693.672C7.40695 690.765 9.82682 686.725 11.5179 683.803C14.3208 678.978 17.4975 673.957 14.9608 668.299C12.1906 662.128 6.18305 659.949 8.28057 652.295C9.81283 646.7 13.3118 641.781 15.6195 636.498C17.7918 631.523 19.2633 625.913 17.0116 620.7C15.4887 617.17 12.5456 614.991 10.1118 612.144C6.02418 607.361 6.12232 600.558 10.2006 595.804C11.1442 594.699 11.0368 593.413 10.4482 592.427C14.0546 589.772 16.6473 586.37 18.614 581.931C19.7258 579.42 19.0204 576.087 15.9138 575.362C10.0884 573.998 10.4808 565.918 11.5039 561.345C13.0034 554.604 16.0773 548.266 15.442 541.181C14.8674 534.804 11.1909 530.839 6.35123 527.048C0.890208 522.761 1.26388 520.085 6.07089 515.617C12.8773 509.29 21.4636 502.325 15.5775 492.267C12.2654 486.606 8.85047 482.898 9.6493 475.876C10.3874 469.378 14.0359 463.834 19.8659 460.765C22.6689 459.293 22.8324 454.631 19.8659 453.21C10.4575 448.68 7.0099 437.988 11.4198 428.777C13.3352 424.798 14.8768 421.147 13.6341 416.673C12.7372 413.433 10.7144 410.721 8.39268 408.29C17.8432 400.215 21.5056 385.988 15.769 374.599C12.5597 368.227 1.53017 360.821 4.73951 352.962C7.20608 346.917 13.8303 343.401 16.4183 337.318C19.7024 329.59 14.6759 325.817 10.8499 319.851C6.84174 313.581 17.2826 305.783 19.7118 300.224C22.6502 293.496 20.4406 287.026 16.6333 281.149C14.447 277.778 11.7702 274.608 10.2192 270.877C7.99556 265.519 9.66797 260.156 11.915 255.102C15.6382 246.719 20.1089 239.304 18.7775 229.799C18.1375 225.269 16.1567 220.954 12.7932 218.191C20.8983 211.701 28.6858 203.856 29.4332 193.21C30.0125 185 26.294 177.099 19.5343 173.232C27.8683 163.321 31.372 150.01 29.9518 137.13C28.3401 122.463 20.9918 109.447 11.3731 98.4785C15.2739 96.4635 18.2169 92.8494 19.3894 88.333C19.5109 87.8515 19.567 87.3652 19.6417 86.879C20.1416 84.8733 20.3004 82.7273 20.1089 80.7449C19.6557 76.0556 17.0116 72.5117 14.6011 68.6078C13.0315 66.0597 11.0461 63.2078 11.1255 60.108C11.2096 56.6716 13.8957 54.9324 15.783 52.3376C19.3381 47.4612 19.1419 42.6176 18.0301 37.6851C17.8245 34.0617 16.8996 30.5505 15.3533 27.3198C15.2739 26.9318 15.1944 26.5484 15.1243 26.1604C14.6945 23.5983 15.0262 21.3541 15.9605 19.4653C19.324 18.2263 22.8557 17.497 26.5883 17.3707C28.7886 17.2913 29.4145 15.0985 28.569 13.6772C33.9459 14.0793 39.2995 16.6647 43.985 18.8247C46.8861 20.1619 50.2356 18.577 50.343 15.206C50.642 6.02367 63.7316 7.75824 69.0198 10.6663C76.4428 14.7619 82.1281 21.4289 90.0463 24.7344C95.8951 27.1842 102.814 28.1146 108.812 25.6274C111.531 24.5006 113.754 22.8081 115.53 20.4658C117.394 18.0112 117.977 14.2242 120.066 12.0455C123.686 8.27717 130.404 13.1442 134.407 14.832L149.445 21.1764C156.756 24.2622 166.202 30.3542 174.452 27.7594C181.767 25.4498 185.005 16.0851 193.035 15.697C201.845 15.2669 210.184 22.8409 216.024 28.456C218.495 30.8264 222.265 29.6014 223.334 26.5437C225.404 20.6014 232.276 18.0206 238.199 19.1053C244.744 20.3022 249.467 25.0804 254.092 29.4144C256.46 31.6305 261.23 30.2046 260.964 26.5952C260.852 25.0337 260.665 23.5375 260.431 22.0461C264.976 20.1712 268.943 16.6274 272.797 13.5323C283.583 22.9297 297.35 29.9941 309.604 18.7827C312.491 16.1364 315.13 13.4248 319.106 15.5895C321.605 16.95 323.548 19.5635 325.45 21.6113C329.43 25.8939 333.466 29.6248 339.59 30.0222C340.767 30.1017 342.001 29.3209 342.571 28.3297C345.957 22.4482 354.404 10.1427 361.659 18.923C365.055 23.0279 366.508 28.484 371.642 31.0274C375.865 33.1173 380.396 32.2897 384.544 30.4897C389.23 28.4513 395.037 23.3411 400.47 24.5427C403.824 25.2814 406.519 28.4092 409.528 29.9427C411.934 31.1723 414.484 31.9157 417.17 32.2196C424.243 33.0191 431.208 30.7609 437.809 28.5261C441.116 27.404 444.401 26.1837 447.783 25.272C449.712 24.7577 452.982 24.1313 454.809 25.3048C455.986 26.0576 456.691 27.722 457.448 28.8674C459.947 32.6544 462.484 35.8897 467.464 34.6134C468.244 34.4123 468.786 33.9121 469.132 33.2996C470.771 33.5848 472.533 33.6316 474.331 33.8513C475.34 33.9775 476.924 33.884 477.854 34.2627C478.265 34.431 478.568 34.5479 478.816 34.6321C478.769 34.7022 478.76 34.8004 478.825 34.9921C479.367 36.4508 476.896 41.8976 476.433 43.548C474.56 50.2477 470.267 59.5376 474.854 66.0457C479.007 71.9506 490.042 69.9308 490.565 78.267C491.093 86.706 484.169 93.3824 480.829 100.536C477.27 108.17 477.933 114.538 481.852 121.837C486.449 130.397 483.385 138.401 474.242 141.632C466.936 144.217 465.483 151.272 469.342 157.682C472.346 162.676 484.361 168.361 483.632 174.761C483.249 178.151 476.924 179.128 474.527 181.798C472.304 184.276 471.346 187.637 471.197 190.891C471.028 194.814 472.047 198.652 473.551 202.248C474.555 204.637 475.359 206.755 476.032 208.868C476.424 211.827 476.938 214.778 477.709 217.756C477.723 217.999 477.769 218.205 477.779 218.457C477.816 219.317 478.115 220.023 478.517 220.617C478.601 220.865 478.638 221.113 478.732 221.37C480.166 225.358 481.278 227.658 478.914 231.44C477.615 233.507 476.218 235.148 475.597 237.57C473.588 245.392 478.535 252.367 484.309 257.702C479.699 260.591 475.77 264.28 472.364 268.74C470.183 271.592 473.163 275.604 476.34 275.599C480.96 275.59 484.123 279.517 484.688 283.86C485.351 288.914 482.291 294.053 479.381 297.919C474.49 304.418 470.669 309.991 475.625 317.887C477.952 321.595 481.222 324.709 483.712 328.309C486.566 332.437 489.018 336.846 490.994 341.446C494.573 349.792 498.413 361.466 496.32 370.574C494.409 378.901 483.048 380.71 478.806 387.877C477.087 390.79 476.209 394.142 476.929 397.494ZM491.887 387.943C499.754 382.772 505.43 378.078 505.943 368.026C506.448 358.091 503.519 347.543 499.707 338.454C497.787 333.882 495.503 329.473 492.788 325.312C490.116 321.216 484.665 316.803 483.067 312.277C481.324 307.349 488.299 301.874 490.537 297.545C492.849 293.089 494.33 288.129 493.811 283.084C493.195 277.034 489.714 271.681 484.688 268.773C487.668 266.169 491.037 264.074 494.793 262.485C498.324 260.984 497.194 256.383 494.793 254.616C490.887 251.741 485.818 247.598 484.632 242.657C483.464 237.785 489.107 234.484 489.71 229.678C490.284 225.133 489.037 220.795 487.024 216.643C488.687 209.644 483.039 202.285 481.198 195.637C479.773 190.503 480.755 188.063 485.519 185.917C488.617 184.523 491.013 182.56 492.172 179.296C494.783 171.942 489.878 164.681 484.459 160.109C482.436 158.402 476.064 154.494 476.237 151.413C476.382 148.911 483.543 146.611 485.524 144.764C490.803 139.851 493.424 132.122 491.84 125.081C490.85 120.691 487.542 117.269 486.463 112.972C485.01 107.226 489.056 101.522 491.919 96.8795C495.713 90.7221 499.118 83.999 498.133 76.5465C497.152 69.1034 492.074 66.013 485.403 63.8717C477.41 61.3002 481.278 53.6327 482.871 47.6061C484.034 43.1973 486.813 37.5121 486.089 32.8882C485.552 29.4939 482.894 28.0632 479.755 27.5115C475.466 26.7588 469.076 25.3235 465.138 27.6004C463.722 26.1604 462.792 23.991 461.662 22.523C460.083 20.4565 458.275 18.722 455.692 17.9365C449.324 16.0009 441.817 19.7224 435.912 21.7141C428.111 24.337 419.286 27.4882 411.602 22.9157C406.127 19.657 401.988 16.1598 395.233 17.7588C389.669 19.0773 385.329 23.1728 379.924 24.7858C371.973 27.1609 370.343 17.6138 365.998 13.219C361.766 8.94109 355.735 8.20708 350.232 10.3811C344.477 12.6487 340.856 17.7027 337.806 22.8222C333.288 21.4243 330.07 16.1879 326.898 13.1302C323.534 9.88552 319.498 7.30941 314.625 7.95461C307.609 8.88968 304.759 16.5151 298.135 17.9738C289.745 19.8206 280.888 12.2372 275.226 7.13641C273.829 5.87875 272.11 6.03303 270.685 7.13641C265.827 10.9234 259.632 14.4346 256.367 19.7785C250.808 14.126 243.263 10.0772 235.261 10.1614C228.333 10.2268 221.998 13.2938 218 18.4928C209.208 10.9047 197.482 3.75152 186.102 8.53439C179.987 11.1058 175.451 20.377 168.561 19.5074C164.319 18.9791 159.909 16.3235 156.008 14.7011L142.017 8.86634C135.496 6.14529 126.255 -0.0215046 118.935 2.44707C112.727 4.53227 112.273 10.8393 108.789 15.3651C104.421 21.0409 95.498 18.6051 90.2613 15.5147C83.4595 11.4939 78.0171 5.52342 70.7809 2.1712C61.3725 -2.18621 47.5308 -0.0869412 43.2376 9.39464C34.3664 5.69645 24.6776 3.16237 15.6943 8.08083C11.5366 10.353 9.11675 13.4622 7.84609 16.992C7.09865 17.4175 6.32787 17.7681 5.58976 18.2544C4.08086 19.2502 3.60904 21.3962 5.00582 22.738C5.63648 23.3412 6.21109 23.991 6.767 24.6549C6.88379 27.4134 7.37897 30.27 8.22452 33.1079C10.0558 39.284 11.8916 43.8565 7.38829 49.2519C4.32377 52.9313 2.11416 56.494 2.67941 61.4685C2.70277 61.6556 2.75414 61.8285 2.78217 62.0109C2.69341 62.4036 2.5673 62.7869 2.50657 63.1937C1.647 69.2716 5.25342 73.2785 9.09809 77.4395C11.5927 80.1372 13.8584 82.6899 12.8166 86.5377C12.4662 87.8328 11.7608 88.9361 10.9246 89.9133C10.6443 90.0676 10.4388 90.2733 10.0978 90.3855C9.36437 90.6379 8.93458 91.1523 8.73837 91.7273C7.51443 92.4473 6.15502 92.9476 4.65078 92.9569C1.41341 92.9803 -0.0908392 96.8795 2.06274 99.1517C20.2443 118.372 33.362 151.118 9.99966 172.04C7.21543 174.528 9.71469 178.184 12.7325 178.576C20.6274 179.614 23.0192 189.984 20.9451 196.333C18.2029 204.73 10.1398 210.631 3.34741 215.708C1.02566 217.442 0.539822 222.253 4.28639 222.824C11.3404 223.894 11.9617 232.516 10.635 238.178C8.7617 246.2 3.11853 252.882 1.56291 261.087C0.184806 268.357 2.57194 274.575 6.5661 280.56C10.8032 286.895 15.5681 292.496 10.7144 299.925C7.46771 304.89 2.39444 309.219 1.67502 315.419C1.3667 318.07 1.90392 320.763 3.24465 323.091C4.861 325.896 9.1915 328.617 9.42975 331.988C9.77544 337 2.03003 342.302 -0.632745 346.089C-4.10836 351.036 -5.14076 356.791 -2.66017 362.429C0.693985 370.055 8.73836 374.899 10.009 383.496C11.2283 391.805 7.14535 400.145 -0.226324 404.222C-2.46866 405.466 -3.06191 408.949 -1.06717 410.712C1.14714 412.666 3.84727 414.863 5.10391 417.608C6.65953 421.025 4.36578 423.802 2.97834 426.809C1.09571 430.872 0.395025 435.285 0.862178 439.736C1.57225 446.52 4.83762 452.799 9.94361 457.175C1.70303 464.721 -1.70716 477.092 2.38978 487.705C3.70715 491.113 6.31382 493.526 7.89747 496.714C9.39236 499.726 8.16377 501.417 5.98683 503.727C2.29165 507.641 -2.58545 510.525 -5.30428 515.299C-8.10719 520.222 -7.36906 525.962 -3.58045 530.167C-1.24936 532.757 2.15615 534.285 4.38447 536.949C7.7106 540.929 6.52407 546.054 5.30013 550.612C2.75882 560.107 -1.09053 575.545 8.38333 581.833C6.58479 584.653 4.42186 587.251 1.95062 589.51C-0.399155 591.66 1.32463 594.695 3.80988 595.265C1.06302 600.105 0.381008 605.874 2.67006 611.218C4.23502 614.86 7.13603 617.062 9.60727 620.045C12.4989 623.542 12.5784 627.114 11.205 631.238C7.54714 642.202 -4.04297 653.941 4.90301 665.395C8.14505 669.543 10.9994 671.698 8.25251 677.018C6.63616 680.147 4.37517 682.946 3.31473 686.347C1.46948 692.26 3.99677 698.048 9.79414 700.475C16.7641 703.406 23.8228 701.213 30.475 698.656C35.3287 696.786 41.4531 694.149 46.3395 697.301C49.5722 699.385 51.5389 703.178 53.8654 706.113C58.4107 711.858 64.423 715.1 71.7433 712.083C77.2137 709.826 81.9973 705.711 86.8323 702.382C91.4431 699.213 96.0633 696.043 100.674 692.872C112.437 705.412 126.578 718.227 145.156 716.479C149.529 716.066 153.677 714.762 157.457 712.556C161.128 710.41 165.37 705.576 169.738 708.768C175.11 712.697 176.278 719.779 183.888 720.882C189.905 721.751 194.488 717.648 198.468 713.773C200.78 711.519 203.083 708.681 206.101 707.324C210.464 705.366 215.678 707.749 220.223 708.076C233.589 709.04 266.439 696.154 270.993 717.064C271.423 719.032 273.969 720.546 275.917 719.83C294.164 713.122 312.762 707.707 331.779 703.7C331.373 707.578 331.705 711.462 332.938 715.371C333.363 716.722 334.461 718.04 335.932 718.34C352.437 721.635 368.965 716.099 380.125 704.018C387.039 708.31 394.817 710.91 403.02 711.495C407.673 711.822 412.419 711.429 416.974 710.419C421.781 709.358 427.892 705.174 432.783 707.105C437.01 708.774 439.902 712.645 444.391 714.061C448.628 715.394 453.141 715.16 457.397 714.028C465.381 711.911 472.71 707.141 479.334 702.093C480.806 703.85 482.072 706.095 482.413 706.557C484.66 709.616 488.234 712.523 492.274 711.957C500.655 710.793 499.894 696.708 499.371 690.531C498.59 681.357 495.54 672.348 490.154 664.807C487.519 661.122 484.286 658.233 481.156 654.998C478.778 652.544 477.405 650.44 479.741 647.353C481.488 645.054 483.959 643.277 485.762 640.981C490.98 634.337 493.839 625.188 487.822 618.105C485.351 615.187 481.507 613.421 480.796 609.354C480.119 605.491 481.773 601.259 482.978 597.66C485.356 590.554 488.495 583.181 487.281 575.536C486.687 571.801 485.015 568.658 482.763 565.643C480.675 562.856 475.672 558.953 475.321 555.333C474.934 551.398 482.478 548.278 484.66 545.173C487.514 541.112 487.851 536.29 487.122 531.518C486.267 525.941 483.819 520.61 483.343 514.985C483.058 511.573 484.225 508.496 484.389 505.157C484.408 504.779 484.366 504.434 484.347 504.078C489.612 497.434 494.858 490.262 498.525 483.039C503.397 473.449 498.287 466.946 492.41 459.507C486.575 452.121 478.559 441.559 481.1 431.564C483.305 422.905 494.05 418.272 494.33 408.748C494.433 405.265 492.83 402.198 490.382 399.79C488.579 398.018 486.374 397.368 486.314 394.699C486.239 391.496 489.486 389.518 491.887 387.943Z" fill="#76153C"/>
</svg>
